<svg version="1" xmlns="http://www.w3.org/2000/svg" width="400" height="400" viewBox="0 0 300.000000 300.000000"><path d="M108.8 51.7c-33.2 5.6-59 34.6-60.1 67.6l-.2 6.9-7.5 3.6c-10.1 5-23 17.6-28.3 27.9-17.5 33.6-3.7 73.8 30.8 89.8 13.2 6.2 11.9 6.1 112.5 5.9 90.6-.1 91.6-.1 98-2.2 23.9-7.9 39.4-27.9 40.7-52.7.9-17-4.3-30.9-16.2-43-7.7-7.9-15-12.5-23.8-15-4.9-1.4-5.7-2-5.2-3.5 1.1-3.6 2-11.5 1.9-16.5-.6-18.4-14.8-35.6-33-39.8-10-2.3-24.4-.5-30.9 3.9-3 2.1-3.8 1.8-6.8-3-3.4-5.5-13.9-15.4-21-19.9-15-9.5-33-13.1-50.9-10z"/></svg>